{"title":"The Sitter 2011 TS XviD Feel-Free","uid":6915603,"size":844489856,"categoryP":"video","categoryS":"movies","magnet":"?xt=urn:btih:cc9a8dbb2d07a9f4375c74638e2ad0e42e4f9306&amp;dn=The+Sitter+2011+TS+XviD+Feel-Free&amp;tr=udp%3A%2F%2Ftracker.openbittorrent.com%3A80&amp;tr=udp%3A%2F%2Fopen.demonii.com%3A1337&amp;tr=udp%3A%2F%2Ftracker.coppersurfer.tk%3A6969&amp;tr=udp%3A%2F%2Fexodus.desync.com%3A6969","seeders":1,"leechers":1,"uploader":".BONE.","files":10,"time":1325017656,"description":"Genre:Comedy\nLanguage:English\n &lt;a href=&quot;\nhttp://www.imdb.com/title/tt1366344/&quot; rel=&quot;nofollow&quot; target=&quot;_NEW&quot;&gt;\nhttp://www.imdb.com/title/tt1366344/&lt;/a&gt;\n\nSource:720p TS NEW SOURCE XviD - TH3GRiNCH Thanks!\n\nFormat : AVI\nFormat/Info : Audio Video Interleave\nFile size : 804 MiB\nDuration : 1h 17mn\nOverall bit rate : 1 448 Kbps\n\nVideo\nID : 0\nFormat : MPEG-4 Visual\nFormat profile : Advanced Simple@L5\nFormat settings, BVOP : Yes\nFormat settings, QPel : No\nFormat settings, GMC : No warppoints\nFormat settings, Matrix : Default (H.263)\nCodec ID : XVID\nCodec ID/Hint : XviD\nDuration : 1h 17mn\nBit rate : 1 246 Kbps\nWidth : 640 pixels\nHeight : 312 pixels\nDisplay aspect ratio : 2.051\nFrame rate : 24.000 fps\nColor space : YUV\nChroma subsampling : 4:2:0\nBit depth : 8 bits\nScan type : Progressive\nBits/(Pixel*Frame) : 0.260\nStream size : 692 MiB (86%)\nWriting library : XviD 1.2.1 (UTC 2008-12-04)\n\nAudio\nID : 1\nFormat : AC-3\nFormat/Info : Audio Coding 3\nMode extension : CM (complete main)\nCodec ID : 2000\nDuration : 1h 17mn\nBit rate mode : Constant\nBit rate : 192 Kbps\nChannel(s) : 2 channels\nChannel positions : Front: L R\nSampling rate : 48.0 KHz\nBit depth : 16 bits\nStream size : 107 MiB (13%)\nAlignment : Aligned on interleaves\nInterleave, duration : 42 ms (1.00 video frame)\nInterleave, preload duration : 512 ms\n\n\nPlot:\nA comedy about a college student on suspension who is coaxed into babysitting the kids next door, though he is fully unprepared for the wild night ahead of him\n &lt;a href=&quot;\nhttp://img840.imageshack.us/img840/4296/vlcsnap00001zf.png&quot; rel=&quot;nofollow&quot; target=&quot;_NEW&quot;&gt;\nhttp://img840.imageshack.us/img840/4296/vlcsnap00001zf.png&lt;/a&gt; &lt;a href=&quot;\nhttp://img710.imageshack.us/img710/3751/vlcsnap00002fw.png&quot; rel=&quot;nofollow&quot; target=&quot;_NEW&quot;&gt;\nhttp://img710.imageshack.us/img710/3751/vlcsnap00002fw.png&lt;/a&gt; &lt;a href=&quot;\nhttp://img220.imageshack.us/img220/5532/vlcsnap00003c.png&quot; rel=&quot;nofollow&quot; target=&quot;_NEW&quot;&gt;\nhttp://img220.imageshack.us/img220/5532/vlcsnap00003c.png&lt;/a&gt; &lt;a href=&quot;\nhttp://img513.imageshack.us/img513/5039/vlcsnap00004bh.png&quot; rel=&quot;nofollow&quot; target=&quot;_NEW&quot;&gt;\nhttp://img513.imageshack.us/img513/5039/vlcsnap00004bh.png&lt;/a&gt; &lt;a href=&quot;\nhttp://img812.imageshack.us/img812/1989/vlcsnap00005ta.png&quot; rel=&quot;nofollow&quot; target=&quot;_NEW&quot;&gt;\nhttp://img812.imageshack.us/img812/1989/vlcsnap00005ta.png&lt;/a&gt;","torrent":{"xt":"urn:btih:cc9a8dbb2d07a9f4375c74638e2ad0e42e4f9306","amp;dn":"The+Sitter+2011+TS+XviD+Feel-Free","amp;tr":["udp%3A%2F%2Ftracker.openbittorrent.com%3A80","udp%3A%2F%2Fopen.demonii.com%3A1337","udp%3A%2F%2Ftracker.coppersurfer.tk%3A6969","udp%3A%2F%2Fexodus.desync.com%3A6969"],"infoHash":"cc9a8dbb2d07a9f4375c74638e2ad0e42e4f9306","infoHashBuffer":{"type":"Buffer","data":[204,154,141,187,45,7,169,244,55,92,116,99,142,42,208,228,46,79,147,6]},"announce":[],"urlList":[]}}